<?xml version="1.0" encoding="iso-8859-1"?>
<!-- Uploaded to: SVG Repo, www.svgrepo.com, Generator: SVG Repo Mixer Tools -->
<!DOCTYPE svg PUBLIC "-//W3C//DTD SVG 1.1//EN" "http://www.w3.org/Graphics/SVG/1.1/DTD/svg11.dtd">
<svg fill="currentColor" height="800px" width="800px" version="1.1" id="Capa_1" xmlns="http://www.w3.org/2000/svg" xmlns:xlink="http://www.w3.org/1999/xlink"
	 viewBox="0 0 453.93 453.93" xml:space="preserve">
<g>
	<path d="M220.47,308.786l-17.333,30.021c-3.292,5.703-3.293,12.512,0,18.215c3.292,5.703,9.189,9.108,15.775,9.108h16.106
		c6.585,0,12.482-3.405,15.775-9.108s3.292-12.512,0-18.215l-17.333-30.021c-1.34-2.321-3.815-3.75-6.495-3.75
		S221.809,306.465,220.47,308.786z M237.802,346.307c0.808,1.399,0.347,2.615,0,3.215c-0.347,0.6-1.169,1.607-2.784,1.607h-16.106
		c-1.615,0-2.438-1.007-2.785-1.608c-0.347-0.6-0.808-1.816,0-3.215v0l10.837-18.771L237.802,346.307z"/>
	<path d="M318.997,341.435c7.572,0,15.273-1.075,22.895-3.33c13.883-4.108,21.835-18.744,17.728-32.627l-3.903-13.189
		c-3.662-12.374-11.922-22.581-23.261-28.741c-11.338-6.161-24.398-7.537-36.771-3.875l-49.16,14.547
		c-3.972,1.175-6.239,5.348-5.064,9.32C251.851,318.65,284.114,341.435,318.997,341.435z M299.941,274.055
		c8.532-2.525,17.535-1.576,25.354,2.672c7.818,4.248,13.514,11.286,16.038,19.817l3.903,13.189
		c1.761,5.952-1.648,12.227-7.6,13.988c-32.369,9.579-66.375-7-79.256-37.368L299.941,274.055z"/>
	<path d="M226.965,59.439c-16.235,0-31.499,6.323-42.979,17.803c-23.699,23.699-23.699,62.259,0,85.958
		c11.48,11.48,26.744,17.803,42.979,17.803s31.499-6.323,42.979-17.802c11.48-11.48,17.803-26.744,17.803-42.979
		s-6.322-31.499-17.803-42.979C258.464,65.762,243.2,59.439,226.965,59.439z M253.596,82.983l-26.631,26.631l-26.631-26.631
		c7.717-5.544,16.941-8.544,26.631-8.544S245.879,77.44,253.596,82.983z M189.731,93.593l26.628,26.628l-26.628,26.628
		C178.375,130.987,178.375,109.455,189.731,93.593z M200.334,157.459l26.631-26.631l26.631,26.631
		c-7.717,5.544-16.941,8.544-26.631,8.544S208.051,163.002,200.334,157.459z M264.202,146.852l-26.631-26.631l26.631-26.631
		c5.544,7.717,8.544,16.941,8.544,26.631C272.746,129.911,269.746,139.135,264.202,146.852z"/>
	<path d="M441.355,169.61v-22.44c0-22.982-18.697-41.68-41.68-41.68h-20.85c-12.87,0-24.441-7.927-28.793-19.726
		c-9.188-24.908-25.535-46.227-47.275-61.651C280.522,8.338,254.314,0,226.965,0c-27.347,0-53.555,8.338-75.789,24.112
		c-11.39,8.078-21.383,17.875-29.701,29.117c-1.197,1.617-1.693,3.648-1.378,5.635l6.584,41.546l-10.969-13.964
		c-1.612-2.052-4.175-3.121-6.769-2.816c-2.592,0.303-4.841,1.932-5.937,4.301c-4.934,10.667-15.886,17.559-27.903,17.559h-20.85
		c-22.982,0-41.68,18.698-41.68,41.68v85.61c0,4.142,3.358,7.5,7.5,7.5h49.561c-3.185,12.774-4.801,25.923-4.801,39.22v90.95
		c0,4.142,3.358,7.5,7.5,7.5c32.445,0,58.84,26.4,58.84,58.85v9.63c0,4.142,3.358,7.5,7.5,7.5h176.58c4.142,0,7.5-3.358,7.5-7.5
		v-9.63c0-15.714,6.121-30.495,17.233-41.617c11.113-11.113,25.889-17.233,41.607-17.233c4.142,0,7.5-3.358,7.5-7.5V279.5
		c0-13.297-1.616-26.446-4.801-39.22h49.561c4.142,0,7.5-3.358,7.5-7.5v-38.62c0-2.941-1.719-5.611-4.397-6.828l-16.241-7.38
		l14.642-2.994C438.848,176.244,441.355,173.173,441.355,169.61z M190.933,240.28L79.835,298.821V279.5
		c0-13.334,1.786-26.501,5.307-39.22H190.933z M192.971,293.673c0,22.699-18.467,41.167-41.167,41.167
		c-20.93,0-38.037-15.264-40.769-35.504l68.482-36.085C188.007,271.001,192.971,282.069,192.971,293.673z M374.095,279.5v83.823
		c-16.89,1.693-32.551,9.091-44.716,21.255c-13.945,13.957-21.625,32.502-21.625,52.221v2.13h-24.596v-27.047
		c0-4.142-3.358-7.5-7.5-7.5s-7.5,3.358-7.5,7.5v27.047h-33.694v-27.047c0-4.142-3.358-7.5-7.5-7.5s-7.5,3.358-7.5,7.5v27.047
		h-33.694v-27.047c0-4.142-3.358-7.5-7.5-7.5s-7.5,3.358-7.5,7.5v27.047h-24.596v-2.13c0-38.188-29.135-69.7-66.34-73.472v-47.552
		l17.326-9.129c2.424,10.283,7.708,19.699,15.438,27.239c10.547,10.288,24.47,15.954,39.206,15.954
		c30.971,0,56.167-25.196,56.167-56.167c0-14.032-5.331-27.48-14.602-37.721l29.741-15.672h145.678
		C372.309,252.999,374.095,266.166,374.095,279.5z M27.575,225.28v-14.366h398.78v14.366H27.575z M426.355,163.489l-31.263,6.394
		c-3.183,0.651-5.585,3.278-5.95,6.507s1.392,6.325,4.35,7.669l26.093,11.856H27.575V147.17c0-14.711,11.968-26.68,26.68-26.68
		h20.85c13.861,0,26.791-6.223,35.33-16.48l22.272,28.353c2.11,2.685,5.768,3.608,8.898,2.241c3.13-1.366,4.942-4.675,4.408-8.048
		l-10.599-66.877c6.981-8.933,15.191-16.772,24.441-23.332C179.539,22.382,202.745,15,226.965,15
		c48.435,0,92.236,30.524,108.994,75.956c6.517,17.666,23.743,29.534,42.867,29.534h20.85c14.711,0,26.68,11.969,26.68,26.68
		V163.489z"/>
</g>
</svg>